<?xml version="1.0" standalone="no"?>
<!DOCTYPE svg PUBLIC "-//W3C//DTD SVG 20010904//EN"
 "http://www.w3.org/TR/2001/REC-SVG-20010904/DTD/svg10.dtd">
<svg version="1.0" xmlns="http://www.w3.org/2000/svg"
 width="512.000000pt" height="512.000000pt" viewBox="0 0 512.000000 512.000000"
 preserveAspectRatio="xMidYMid meet">
<metadata>
Created by potrace 1.14, written by Peter Selinger 2001-2017
</metadata>
<g transform="translate(0.000000,512.000000) scale(0.100000,-0.100000)"
fill="#000000" stroke="none">
<path d="M778 5096 c-192 -57 -338 -210 -382 -404 -14 -60 -15 -272 -2 -339 3
-15 8 -50 11 -77 12 -98 51 -252 92 -361 171 -458 506 -801 898 -920 164 -50
193 -229 49 -304 -27 -13 -66 -16 -126 -7 -143 22 -231 -153 -124 -251 79 -73
255 -74 395 -4 69 35 147 108 185 173 l28 48 41 -33 c23 -17 44 -35 47 -38 9
-10 124 -77 173 -100 l47 -23 0 -76 0 -77 -40 -32 c-45 -36 -66 -90 -56 -145
8 -40 47 -92 76 -101 18 -6 20 -16 20 -100 l0 -94 -54 -35 c-72 -46 -195 -167
-245 -242 -56 -83 -101 -184 -127 -279 l-21 -80 -269 -2 c-300 -3 -315 -6
-357 -73 -22 -34 -22 -42 -22 -425 l-1 -390 -50 -6 c-64 -8 -86 -20 -121 -65
-21 -28 -27 -47 -27 -85 0 -53 19 -87 68 -123 27 -21 29 -21 1667 -24 1616 -2
1640 -2 1678 18 50 25 86 94 78 147 -13 78 -78 133 -157 133 l-40 0 0 383 c0
543 24 510 -383 511 l-269 1 -18 70 c-25 97 -46 148 -99 239 -57 98 -169 219
-261 282 l-70 48 0 87 0 87 35 26 c43 33 65 74 65 122 0 46 -33 106 -71 128
-28 17 -29 20 -29 94 l0 77 53 24 c63 29 145 81 208 132 l45 38 42 -63 c85
-129 217 -203 372 -207 139 -5 216 35 238 124 18 69 -13 134 -79 168 -35 17
-49 19 -93 12 -114 -20 -203 38 -210 138 -7 86 42 146 142 175 255 74 522 280
705 546 113 163 235 452 263 623 2 11 7 47 13 80 20 122 23 153 26 270 4 193
-36 312 -145 428 -113 120 -226 169 -395 171 -95 0 -120 -3 -181 -25 -120 -44
-223 -127 -291 -235 -10 -16 -12 -4 -12 65 -1 71 -5 91 -26 126 -47 81 36 76
-1139 73 l-1045 -3 -32 -30 c-45 -43 -60 -85 -58 -166 2 -71 -5 -97 -17 -63
-14 36 -105 133 -161 170 -132 87 -306 114 -455 70z m247 -300 c94 -43 137
-106 150 -216 3 -30 14 -68 23 -85 34 -58 116 -85 180 -59 l32 13 0 -312 c0
-414 6 -764 15 -805 l6 -33 -38 16 c-194 80 -402 282 -530 515 -67 122 -142
349 -158 478 -4 26 -8 55 -11 64 -11 37 -13 225 -3 263 38 147 199 225 334
161z m3289 -10 c55 -32 93 -80 111 -140 14 -45 14 -193 0 -279 -4 -23 -9 -55
-11 -72 -12 -75 -47 -203 -79 -289 -73 -195 -161 -333 -305 -476 -102 -102
-203 -174 -302 -215 l-37 -15 6 48 c3 26 7 54 9 62 1 8 3 246 3 528 l1 513 22
-12 c46 -25 118 -16 161 20 29 24 44 61 52 121 7 55 32 121 57 150 21 25 81
67 113 79 50 18 148 7 199 -23z"/>
</g>
</svg>
